<svg xmlns="http://www.w3.org/2000/svg" viewBox="0 0 24 24" width="24" height="24" fill="currentColor">
    <rect x="0" y="-3.059" width="26.969" height="26.969" style="fill:none;" />
    <rect x="12.361" y="19.415" width="2.247" height="3.371" />
    <path d="M3.95,2.48l1.589,-1.589l2.383,2.383l-1.589,1.589l-2.383,-2.383Z" />
    <path d="M19.047,17.577l1.589,-1.589l2.384,2.384l-1.589,1.588l-2.384,-2.383Z" />
    <path d="M6.333,15.988l1.589,1.589l-2.383,2.383l-1.589,-1.588l2.383,-2.384Z" />
    <rect x="1.124" y="9.302" width="3.371" height="2.247" />
    <path
        d="M12.158,7.063c0,-0 0,0 0,0c0,2.586 2.128,4.714 4.713,4.714c1.267,-0 2.481,-0.511 3.367,-1.415l-0,0.067c-0,3.719 -3.015,6.734 -6.733,6.734c-3.719,-0 -6.734,-3.015 -6.734,-6.734c0,-3.718 3.015,-6.733 6.734,-6.733l0.067,0c-0.906,0.885 -1.416,2.1 -1.414,3.367Zm-4.04,3.366c0,0.001 0,0.002 0,0.003c0,2.955 2.432,5.386 5.387,5.386c1.988,0 3.821,-1.101 4.755,-2.856c-0.456,0.108 -0.922,0.162 -1.39,0.162c-3.324,-0 -6.06,-2.736 -6.06,-6.06c0,-0.468 0.054,-0.934 0.162,-1.39c-1.755,0.935 -2.854,2.768 -2.854,4.755Z"
        style="fill-rule:nonzero;" />
</svg>
